<svg xmlns="http://www.w3.org/2000/svg" viewBox="0 0 1000 500" preserveAspectRatio="xMidYMid meet">
  <!-- Main Building Structure -->
  <g id="independence-palace">
    <!-- Base Platform and Stairs -->
    <g id="base">
      <rect x="20" y="370" width="960" height="30" fill="#F5F5F5" rx="2" ry="2" />
      <rect x="350" y="350" width="300" height="20" fill="#F5F5F5" />
      <rect x="380" y="340" width="240" height="10" fill="#F5F5F5" />
      <rect x="395" y="330" width="210" height="10" fill="#F5F5F5" />

      <!-- Stairs Details -->
      <line x1="395" y1="330" x2="605" y2="330" stroke="#DDDDDD" stroke-width="1" />
      <line x1="380" y1="340" x2="620" y2="340" stroke="#DDDDDD" stroke-width="1" />
      <line x1="350" y1="350" x2="650" y2="350" stroke="#DDDDDD" stroke-width="1" />
      <line x1="350" y1="360" x2="650" y2="360" stroke="#DDDDDD" stroke-width="1" />

      <!-- Base Decorative Elements -->
      <rect x="40" y="372" width="920" height="3" fill="#E5E5E5" />
      <rect x="360" y="352" width="280" height="2" fill="#E5E5E5" />
    </g>

    <!-- Main Building Base -->
    <rect x="50" y="150" width="900" height="180" fill="#FFFFFF" />
    <rect x="50" y="150" width="900" height="5" fill="#F0F0F0" />

    <!-- Lower Floor -->
    <rect x="70" y="310" width="860" height="40" fill="#EEEEEE" />

    <!-- Shadows and Depth -->
    <rect x="70" y="309" width="860" height="2" fill="#DDDDDD" />
    <rect x="70" y="348" width="860" height="2" fill="#BBBBBB" />

    <g id="lower-columns">
      <!-- Left side columns -->
      <rect x="90" y="310" width="15" height="40" fill="#444444" />
      <rect x="135" y="310" width="15" height="40" fill="#444444" />
      <rect x="180" y="310" width="15" height="40" fill="#444444" />
      <rect x="225" y="310" width="15" height="40" fill="#444444" />
      <rect x="270" y="310" width="15" height="40" fill="#444444" />
      <rect x="315" y="310" width="15" height="40" fill="#444444" />
      <rect x="360" y="310" width="15" height="40" fill="#444444" />

      <!-- Column Details -->
      <rect x="90" y="310" width="15" height="2" fill="#555555" />
      <rect x="135" y="310" width="15" height="2" fill="#555555" />
      <rect x="180" y="310" width="15" height="2" fill="#555555" />
      <rect x="225" y="310" width="15" height="2" fill="#555555" />
      <rect x="270" y="310" width="15" height="2" fill="#555555" />
      <rect x="315" y="310" width="15" height="2" fill="#555555" />
      <rect x="360" y="310" width="15" height="2" fill="#555555" />

      <!-- Column Bottom Details -->
      <rect x="90" y="348" width="15" height="2" fill="#333333" />
      <rect x="135" y="348" width="15" height="2" fill="#333333" />
      <rect x="180" y="348" width="15" height="2" fill="#333333" />
      <rect x="225" y="348" width="15" height="2" fill="#333333" />
      <rect x="270" y="348" width="15" height="2" fill="#333333" />
      <rect x="315" y="348" width="15" height="2" fill="#333333" />
      <rect x="360" y="348" width="15" height="2" fill="#333333" />

      <!-- Center entrance is wider -->
      <rect x="405" y="310" width="190" height="40" fill="#222222" />
      <rect x="405" y="310" width="190" height="2" fill="#333333" />
      <rect x="405" y="348" width="190" height="2" fill="#111111" />

      <!-- Entrance details -->
      <rect x="485" y="310" width="30" height="40" fill="#111111" />
      <rect x="495" y="320" width="10" height="30" fill="#1A1A1A" />

      <!-- Right side columns -->
      <rect x="625" y="310" width="15" height="40" fill="#444444" />
      <rect x="670" y="310" width="15" height="40" fill="#444444" />
      <rect x="715" y="310" width="15" height="40" fill="#444444" />
      <rect x="760" y="310" width="15" height="40" fill="#444444" />
      <rect x="805" y="310" width="15" height="40" fill="#444444" />
      <rect x="850" y="310" width="15" height="40" fill="#444444" />
      <rect x="895" y="310" width="15" height="40" fill="#444444" />

      <!-- Column Details -->
      <rect x="625" y="310" width="15" height="2" fill="#555555" />
      <rect x="670" y="310" width="15" height="2" fill="#555555" />
      <rect x="715" y="310" width="15" height="2" fill="#555555" />
      <rect x="760" y="310" width="15" height="2" fill="#555555" />
      <rect x="805" y="310" width="15" height="2" fill="#555555" />
      <rect x="850" y="310" width="15" height="2" fill="#555555" />
      <rect x="895" y="310" width="15" height="2" fill="#555555" />

      <!-- Column Bottom Details -->
      <rect x="625" y="348" width="15" height="2" fill="#333333" />
      <rect x="670" y="348" width="15" height="2" fill="#333333" />
      <rect x="715" y="348" width="15" height="2" fill="#333333" />
      <rect x="760" y="348" width="15" height="2" fill="#333333" />
      <rect x="805" y="348" width="15" height="2" fill="#333333" />
      <rect x="850" y="348" width="15" height="2" fill="#333333" />
      <rect x="895" y="348" width="15" height="2" fill="#333333" />
    </g>

    <!-- Main Floor Vertical Bars/Windows -->
    <g id="vertical-bars">
      <!-- Left side windows -->
      <g id="left-windows">
        <rect x="70" y="190" width="150" height="120" fill="#F0F0F0" />
        <rect x="70" y="189" width="150" height="2" fill="#DDDDDD" />
        <rect x="70" y="309" width="150" height="1" fill="#CCCCCC" />

        <!-- Window panes for left section -->
        <rect x="80" y="200" width="10" height="100" fill="#666666" />
        <rect x="100" y="200" width="10" height="100" fill="#666666" />
        <rect x="120" y="200" width="10" height="100" fill="#666666" />
        <rect x="140" y="200" width="10" height="100" fill="#666666" />
        <rect x="160" y="200" width="10" height="100" fill="#666666" />
        <rect x="180" y="200" width="10" height="100" fill="#666666" />
        <rect x="200" y="200" width="10" height="100" fill="#666666" />

        <!-- Window glass reflections -->
        <rect x="80" y="200" width="10" height="5" fill="#888888" />
        <rect x="100" y="200" width="10" height="5" fill="#888888" />
        <rect x="120" y="200" width="10" height="5" fill="#888888" />
        <rect x="140" y="200" width="10" height="5" fill="#888888" />
        <rect x="160" y="200" width="10" height="5" fill="#888888" />
        <rect x="180" y="200" width="10" height="5" fill="#888888" />
        <rect x="200" y="200" width="10" height="5" fill="#888888" />
      </g>

      <!-- Center section of vertical bars -->
      <g id="center-bars">
        <rect x="230" y="180" width="540" height="130" fill="#F0F0F0" />
        <rect x="230" y="179" width="540" height="2" fill="#DDDDDD" />
        <rect x="230" y="309" width="540" height="1" fill="#CCCCCC" />

        <!-- Vertical bars for center section with enhanced details -->
        <g id="vertical-bars-left">
          <rect x="240" y="180" width="2" height="130" fill="#444444" />
          <rect x="250" y="180" width="2" height="130" fill="#444444" />
          <rect x="260" y="180" width="2" height="130" fill="#444444" />
          <rect x="270" y="180" width="2" height="130" fill="#444444" />
          <rect x="280" y="180" width="2" height="130" fill="#444444" />
          <rect x="290" y="180" width="2" height="130" fill="#444444" />
          <rect x="300" y="180" width="2" height="130" fill="#444444" />
          <rect x="310" y="180" width="2" height="130" fill="#444444" />
          <rect x="320" y="180" width="2" height="130" fill="#444444" />
          <rect x="330" y="180" width="2" height="130" fill="#444444" />
          <rect x="340" y="180" width="2" height="130" fill="#444444" />
          <rect x="350" y="180" width="2" height="130" fill="#444444" />
          <rect x="360" y="180" width="2" height="130" fill="#444444" />
          <rect x="370" y="180" width="2" height="130" fill="#444444" />
          <rect x="380" y="180" width="2" height="130" fill="#444444" />
          <rect x="390" y="180" width="2" height="130" fill="#444444" />
          <rect x="400" y="180" width="2" height="130" fill="#444444" />
          <rect x="410" y="180" width="2" height="130" fill="#444444" />
          <rect x="420" y="180" width="2" height="130" fill="#444444" />
          <rect x="430" y="180" width="2" height="130" fill="#444444" />
          <rect x="440" y="180" width="2" height="130" fill="#444444" />
          <rect x="450" y="180" width="2" height="130" fill="#444444" />
        </g>

        <!-- Center door frame with enhanced details -->
        <rect x="460" y="180" width="10" height="130" fill="#FFFFFF" />
        <rect x="470" y="180" width="60" height="130" fill="#444444" />
        <rect x="470" y="180" width="60" height="2" fill="#555555" />
        <rect x="470" y="308" width="60" height="2" fill="#333333" />
        <rect x="470" y="230" width="60" height="2" fill="#555555" />
        <rect x="530" y="180" width="10" height="130" fill="#FFFFFF" />

        <!-- Door details -->
        <rect x="475" y="190" width="50" height="115" fill="#333333" />
        <rect x="480" y="195" width="40" height="105" fill="#222222" />
        <rect x="485" y="200" width="30" height="95" fill="#111111" />

        <!-- Right side of vertical bars -->
        <g id="vertical-bars-right">
          <rect x="550" y="180" width="2" height="130" fill="#444444" />
          <rect x="560" y="180" width="2" height="130" fill="#444444" />
          <rect x="570" y="180" width="2" height="130" fill="#444444" />
          <rect x="580" y="180" width="2" height="130" fill="#444444" />
          <rect x="590" y="180" width="2" height="130" fill="#444444" />
          <rect x="600" y="180" width="2" height="130" fill="#444444" />
          <rect x="610" y="180" width="2" height="130" fill="#444444" />
          <rect x="620" y="180" width="2" height="130" fill="#444444" />
          <rect x="630" y="180" width="2" height="130" fill="#444444" />
          <rect x="640" y="180" width="2" height="130" fill="#444444" />
          <rect x="650" y="180" width="2" height="130" fill="#444444" />
          <rect x="660" y="180" width="2" height="130" fill="#444444" />
          <rect x="670" y="180" width="2" height="130" fill="#444444" />
          <rect x="680" y="180" width="2" height="130" fill="#444444" />
          <rect x="690" y="180" width="2" height="130" fill="#444444" />
          <rect x="700" y="180" width="2" height="130" fill="#444444" />
          <rect x="710" y="180" width="2" height="130" fill="#444444" />
          <rect x="720" y="180" width="2" height="130" fill="#444444" />
          <rect x="730" y="180" width="2" height="130" fill="#444444" />
          <rect x="740" y="180" width="2" height="130" fill="#444444" />
          <rect x="750" y="180" width="2" height="130" fill="#444444" />
        </g>
      </g>

      <!-- Right side windows -->
      <g id="right-windows">
        <rect x="780" y="190" width="150" height="120" fill="#F0F0F0" />
        <rect x="780" y="189" width="150" height="2" fill="#DDDDDD" />
        <rect x="780" y="309" width="150" height="1" fill="#CCCCCC" />

        <!-- Window panes for right section -->
        <rect x="790" y="200" width="10" height="100" fill="#666666" />
        <rect x="810" y="200" width="10" height="100" fill="#666666" />
        <rect x="830" y="200" width="10" height="100" fill="#666666" />
        <rect x="850" y="200" width="10" height="100" fill="#666666" />
        <rect x="870" y="200" width="10" height="100" fill="#666666" />
        <rect x="890" y="200" width="10" height="100" fill="#666666" />
        <rect x="910" y="200" width="10" height="100" fill="#666666" />

        <!-- Window glass reflections -->
        <rect x="790" y="200" width="10" height="5" fill="#888888" />
        <rect x="810" y="200" width="10" height="5" fill="#888888" />
        <rect x="830" y="200" width="10" height="5" fill="#888888" />
        <rect x="850" y="200" width="10" height="5" fill="#888888" />
        <rect x="870" y="200" width="10" height="5" fill="#888888" />
        <rect x="890" y="200" width="10" height="5" fill="#888888" />
        <rect x="910" y="200" width="10" height="5" fill="#888888" />
      </g>
    </g>

    <!-- Upper Section -->
    <rect x="50" y="130" width="900" height="20" fill="#FFFFFF" />
    <rect x="50" y="130" width="900" height="2" fill="#F0F0F0" />
    <rect x="50" y="148" width="900" height="2" fill="#DDDDDD" />

    <!-- Small upper windows with enhanced details -->
    <g id="small-windows">
      <!-- Left side small windows -->
      <g id="left-small-windows">
        <rect x="70" y="132" width="10" height="16" fill="#666666" />
        <rect x="90" y="132" width="10" height="16" fill="#666666" />
        <rect x="110" y="132" width="10" height="16" fill="#666666" />
        <rect x="130" y="132" width="10" height="16" fill="#666666" />
        <rect x="150" y="132" width="10" height="16" fill="#666666" />
        <rect x="170" y="132" width="10" height="16" fill="#666666" />
        <rect x="190" y="132" width="10" height="16" fill="#666666" />
        <rect x="210" y="132" width="10" height="16" fill="#666666" />
        <rect x="230" y="132" width="10" height="16" fill="#666666" />
        <rect x="250" y="132" width="10" height="16" fill="#666666" />
        <rect x="270" y="132" width="10" height="16" fill="#666666" />
        <rect x="290" y="132" width="10" height="16" fill="#666666" />
        <rect x="310" y="132" width="10" height="16" fill="#666666" />
        <rect x="330" y="132" width="10" height="16" fill="#666666" />
        <rect x="350" y="132" width="10" height="16" fill="#666666" />
        <rect x="370" y="132" width="10" height="16" fill="#666666" />
        <rect x="390" y="132" width="10" height="16" fill="#666666" />

        <!-- Glass reflections -->
        <rect x="70" y="132" width="10" height="2" fill="#888888" />
        <rect x="90" y="132" width="10" height="2" fill="#888888" />
        <rect x="110" y="132" width="10" height="2" fill="#888888" />
        <rect x="130" y="132" width="10" height="2" fill="#888888" />
        <rect x="150" y="132" width="10" height="2" fill="#888888" />
        <rect x="170" y="132" width="10" height="2" fill="#888888" />
        <rect x="190" y="132" width="10" height="2" fill="#888888" />
        <rect x="210" y="132" width="10" height="2" fill="#888888" />
        <rect x="230" y="132" width="10" height="2" fill="#888888" />
        <rect x="250" y="132" width="10" height="2" fill="#888888" />
        <rect x="270" y="132" width="10" height="2" fill="#888888" />
        <rect x="290" y="132" width="10" height="2" fill="#888888" />
        <rect x="310" y="132" width="10" height="2" fill="#888888" />
        <rect x="330" y="132" width="10" height="2" fill="#888888" />
        <rect x="350" y="132" width="10" height="2" fill="#888888" />
        <rect x="370" y="132" width="10" height="2" fill="#888888" />
        <rect x="390" y="132" width="10" height="2" fill="#888888" />
      </g>

      <!-- Right side small windows -->
      <g id="right-small-windows">
        <rect x="600" y="132" width="10" height="16" fill="#666666" />
        <rect x="620" y="132" width="10" height="16" fill="#666666" />
        <rect x="640" y="132" width="10" height="16" fill="#666666" />
        <rect x="660" y="132" width="10" height="16" fill="#666666" />
        <rect x="680" y="132" width="10" height="16" fill="#666666" />
        <rect x="700" y="132" width="10" height="16" fill="#666666" />
        <rect x="720" y="132" width="10" height="16" fill="#666666" />
        <rect x="740" y="132" width="10" height="16" fill="#666666" />
        <rect x="760" y="132" width="10" height="16" fill="#666666" />
        <rect x="780" y="132" width="10" height="16" fill="#666666" />
        <rect x="800" y="132" width="10" height="16" fill="#666666" />
        <rect x="820" y="132" width="10" height="16" fill="#666666" />
        <rect x="840" y="132" width="10" height="16" fill="#666666" />
        <rect x="860" y="132" width="10" height="16" fill="#666666" />
        <rect x="880" y="132" width="10" height="16" fill="#666666" />
        <rect x="900" y="132" width="10" height="16" fill="#666666" />
        <rect x="920" y="132" width="10" height="16" fill="#666666" />

        <!-- Glass reflections -->
        <rect x="600" y="132" width="10" height="2" fill="#888888" />
        <rect x="620" y="132" width="10" height="2" fill="#888888" />
        <rect x="640" y="132" width="10" height="2" fill="#888888" />
        <rect x="660" y="132" width="10" height="2" fill="#888888" />
        <rect x="680" y="132" width="10" height="2" fill="#888888" />
        <rect x="700" y="132" width="10" height="2" fill="#888888" />
        <rect x="720" y="132" width="10" height="2" fill="#888888" />
        <rect x="740" y="132" width="10" height="2" fill="#888888" />
        <rect x="760" y="132" width="10" height="2" fill="#888888" />
        <rect x="780" y="132" width="10" height="2" fill="#888888" />
        <rect x="800" y="132" width="10" height="2" fill="#888888" />
        <rect x="820" y="132" width="10" height="2" fill="#888888" />
        <rect x="840" y="132" width="10" height="2" fill="#888888" />
        <rect x="860" y="132" width="10" height="2" fill="#888888" />
        <rect x="880" y="132" width="10" height="2" fill="#888888" />
        <rect x="900" y="132" width="10" height="2" fill="#888888" />
        <rect x="920" y="132" width="10" height="2" fill="#888888" />
      </g>
    </g>

    <!-- Top Floor with enhanced details -->
    <rect x="380" y="80" width="240" height="50" fill="#FFFFFF" />
    <rect x="380" y="80" width="240" height="2" fill="#F0F0F0" />
    <rect x="380" y="128" width="240" height="2" fill="#DDDDDD" />

    <!-- Top floor windows with enhanced details -->
    <g id="top-floor-windows">
      <rect x="395" y="90" width="60" height="30" fill="#444444" />
      <rect x="400" y="95" width="50" height="20" fill="#333333" />
      <rect x="405" y="95" width="40" height="3" fill="#555555" />

      <rect x="470" y="90" width="60" height="30" fill="#444444" />
      <rect x="475" y="95" width="50" height="20" fill="#333333" />
      <rect x="480" y="95" width="40" height="3" fill="#555555" />

      <rect x="545" y="90" width="60" height="30" fill="#444444" />
      <rect x="550" y="95" width="50" height="20" fill="#333333" />
      <rect x="555" y="95" width="40" height="3" fill="#555555" />
    </g>

    <!-- Roof with enhanced details -->
    <rect x="370" y="60" width="260" height="20" fill="#FFFFFF" />
    <rect x="370" y="60" width="260" height="2" fill="#F0F0F0" />
    <rect x="370" y="78" width="260" height="2" fill="#DDDDDD" />

    <!-- Roof ornamental details -->
    <rect x="375" y="65" width="250" height="1" fill="#EEEEEE" />
    <rect x="375" y="70" width="250" height="1" fill="#EEEEEE" />
    <rect x="375" y="75" width="250" height="1" fill="#EEEEEE" />

    <!-- Flag Pole with enhanced details -->
    <rect x="495" y="20" width="10" height="40" fill="#DDDDDD" />
    <rect x="495" y="20" width="10" height="2" fill="#EEEEEE" />
    <rect x="495" y="58" width="10" height="2" fill="#BBBBBB" />
    <circle cx="500" cy="20" r="5" fill="#EEEEEE" />

    <!-- Vietnamese Flag with enhanced details -->
    <rect x="505" y="20" width="30" height="20" fill="#DA251D" />

    <!-- Star with enhanced details -->
    <polygon points="520,30 528,26 525,35 520,30 515,35 512,26" fill="#FFFF00" />
    <polygon points="520,30 522,28 523,30 520,31 517,30 518,28" fill="#FFF5AA" />

    <!-- Flag's subtle fold lines -->
    <line x1="515" y1="20" x2="515" y2="40" stroke="#C01010" stroke-width="0.5" opacity="0.5" />
    <line x1="525" y1="20" x2="525" y2="40" stroke="#C01010" stroke-width="0.5" opacity="0.5" />
  </g>
</svg>
